<svg width="381" height="474" viewBox="0 0 381 474" fill="none" xmlns="http://www.w3.org/2000/svg">
<path opacity="0.05" fill-rule="evenodd" clip-rule="evenodd" d="M334.353 362.581L332.891 365.639L331.443 368.657L330.009 371.639L328.592 374.587L327.191 377.5L325.81 380.383L324.449 383.236L323.11 386.062L321.795 388.863L320.507 391.64L319.246 394.397L318.016 397.136L316.817 399.86L315.653 402.57L314.524 405.271L313.432 407.964L312.379 410.653L311.367 413.34L310.396 416.029L309.468 418.723L308.584 421.426L307.743 424.139L306.947 426.867L306.195 429.612L305.487 432.378L304.822 435.168L304.2 437.984L303.619 440.829L303.077 443.707L302.572 446.618L302.103 449.567L301.666 452.554L301.258 455.582L300.876 458.652L300.517 461.765L300.176 464.922L299.848 468.125L299.531 471.372L299.217 474.665L298.904 478.002L298.585 481.383L298.255 484.807L297.91 488.272L297.543 491.777L297.149 495.318L296.723 498.895L296.26 502.503L295.753 506.139L295.198 509.801L294.589 513.483L293.922 517.182L293.191 520.894L292.391 524.613L291.519 528.335L290.569 532.053L289.538 535.764L288.423 539.461L287.219 543.138L285.923 546.789L284.533 550.409L283.046 553.991L281.46 557.53L279.774 561.018L277.986 564.451L276.095 567.821L274.102 571.124L272.005 574.353L269.805 577.503L267.503 580.567L265.1 583.542L262.597 586.422L259.997 589.202L257.301 591.879L254.513 594.447L251.634 596.904L248.669 599.247L245.621 601.472L242.493 603.577L239.29 605.56L236.016 607.419L232.675 609.154L229.271 610.762L225.809 612.242L222.292 613.594L218.726 614.816L215.114 615.909L211.461 616.87L207.772 617.702L204.051 618.404L200.302 618.977L196.53 619.421L192.74 619.739L188.936 619.931L185.123 620L181.305 619.948L177.485 619.779L173.67 619.494L169.861 619.098L166.064 618.593L162.282 617.985L158.519 617.277L154.777 616.473L151.061 615.579L147.373 614.598L143.716 613.537L140.092 612.4L136.504 611.193L132.953 609.919L129.441 608.586L125.969 607.197L122.539 605.758L119.152 604.273L115.807 602.747L112.507 601.185L109.25 599.59L106.037 597.967L102.868 596.319L99.7423 594.65L96.6597 592.965L93.6195 591.266L90.6208 589.557L87.6626 587.843L84.7438 586.126L81.8631 584.41L79.0191 582.697L76.2102 580.991L73.4348 579.294L70.6911 577.609L67.9773 575.939L65.2914 574.285L62.6313 572.65L59.9951 571.035L57.3806 569.441L54.7856 567.871L52.208 566.324L49.6456 564.803L47.0961 563.308L44.5575 561.838L42.0276 560.395L39.5042 558.979L36.9853 557.589L34.4688 556.225L31.9527 554.887L29.4352 553.573L26.9143 552.284L24.3883 551.018L21.8555 549.774L19.3142 548.55L16.7629 547.347L14.2001 546.161L11.6246 544.992L9.03493 543.838L6.42995 542.698L3.80853 541.569L1.16966 540.45L-1.48759 539.338L-4.16389 538.233L-6.85965 537.131L-9.575 536.029L-12.3098 534.926L-15.0636 533.817L-17.8357 532.7L-20.6253 531.571L-23.4311 530.427L-26.2518 529.265L-29.0859 528.081L-31.9315 526.872L-34.7868 525.636L-37.6496 524.369L-40.5178 523.068L-43.389 521.73L-46.2608 520.353L-49.1307 518.934L-51.9961 517.472L-54.8546 515.963L-57.7033 514.406L-60.5397 512.8L-63.3612 511.143L-66.1651 509.433L-68.9489 507.669L-71.7098 505.851L-74.4454 503.978L-77.1533 502.049L-79.8309 500.063L-82.4758 498.021L-85.0857 495.922L-87.6582 493.767L-90.1912 491.555L-92.6824 489.287L-95.1297 486.964L-97.5307 484.585L-99.8836 482.151L-102.186 479.663L-104.437 477.123L-106.635 474.53L-108.777 471.887L-110.863 469.195L-112.893 466.454L-114.864 463.667L-116.778 460.835L-118.632 457.96L-120.427 455.043L-122.162 452.086L-123.838 449.092L-125.455 446.06L-127.014 442.994L-128.514 439.895L-129.956 436.765L-131.341 433.605L-132.669 430.417L-133.943 427.202L-135.161 423.962L-136.326 420.698L-137.439 417.412L-138.5 414.104L-139.511 410.777L-140.473 407.431L-141.387 404.067L-142.254 400.686L-143.076 397.29L-143.853 393.878L-144.587 390.451L-145.279 387.011L-145.93 383.558L-146.542 380.091L-147.115 376.613L-147.65 373.122L-148.148 369.62L-148.611 366.106L-149.039 362.581L-149.433 359.045L-149.794 355.497L-150.124 351.939L-150.422 348.368L-150.691 344.787L-150.932 341.194L-151.146 337.588L-151.336 333.97L-151.502 330.339L-151.649 326.694L-151.776 323.034L-151.887 319.358L-151.983 315.664L-152.066 311.953L-152.139 308.222L-152.203 304.469L-152.261 300.694L-152.313 296.893L-152.362 293.067L-152.408 289.211L-152.454 285.325L-152.5 281.406L-152.546 277.452L-152.594 273.462L-152.643 269.432L-152.693 265.362L-152.743 261.248L-152.794 257.089L-152.843 252.884L-152.889 248.63L-152.93 244.326L-152.964 239.971L-152.989 235.564L-153 231.104L-152.995 226.591L-152.969 222.025L-152.919 217.406L-152.839 212.735L-152.725 208.012L-152.572 203.24L-152.374 198.421L-152.126 193.555L-151.823 188.647L-151.458 183.699L-151.028 178.714L-150.526 173.696L-149.947 168.649L-149.286 163.577L-148.537 158.485L-147.696 153.378L-146.757 148.261L-145.716 143.139L-144.568 138.019L-143.309 132.907L-141.935 127.808L-140.443 122.73L-138.828 117.679L-137.088 112.661L-135.22 107.684L-133.222 102.755L-131.092 97.8811L-128.827 93.0687L-126.428 88.3252L-123.893 83.6577L-121.222 79.0731L-118.415 74.5783L-115.472 70.1798L-112.395 65.8842L-109.185 61.6978L-105.843 57.6266L-102.373 53.6764L-98.7756 49.8526L-95.0549 46.1604L-91.214 42.6044L-87.2566 39.189L-83.1868 35.9182L-79.009 32.7954L-74.7277 29.8237L-70.3479 27.0057L-65.8749 24.3432L-61.3141 21.8374L-56.6715 19.4885L-51.9531 17.2961L-47.1651 15.259L-42.3139 13.3753L-37.4059 11.6423L-32.4473 10.0566L-27.4445 8.61424L-22.4037 7.31064L-17.3308 6.14062L-12.2317 5.09849L-7.11198 4.17809L-1.97679 3.37285L3.1689 2.67583L8.32051 2.07983L13.4739 1.57736L18.6252 1.1608L23.7711 0.822413L28.9087 0.554404L34.0356 0.349017L39.1496 0.198585L44.2492 0.0955995L49.3334 0.0327769L54.4014 0.00312356L59.4529 0L64.488 0.0171833L69.5074 0.0489273L74.5117 0.09002L79.5022 0.135839L84.4803 0.182402L89.4477 0.226418L94.4063 0.265328L99.3581 0.29735L104.305 0.32151L109.25 0.337649L114.194 0.346258L119.14 0.348362L124.09 0.345509L129.046 0.339754L134.009 0.333643L138.981 0.330196L143.965 0.332878L148.96 0.34558L153.968 0.372583L158.989 0.418528L164.025 0.488385L169.075 0.587408L174.138 0.721105L179.215 0.895193L184.305 1.11555L189.406 1.3882L194.517 1.71922L199.635 2.11474L204.759 2.58089L209.887 3.12373L215.014 3.74924L220.139 4.46327L225.257 5.27148L230.364 6.17932L235.457 7.19197L240.531 8.31435L245.582 9.55103L250.605 10.9062L255.596 12.3838L260.548 13.9871L265.458 15.7192L270.319 17.5825L275.127 19.5793L279.877 21.7109L284.563 23.9786L289.181 26.3829L293.725 28.9239L298.19 31.6011L302.573 34.4136L306.868 37.3601L311.07 40.4387L315.177 43.6473L319.184 46.9836L323.086 50.4453L326.88 54.0296L330.563 57.7336L334.129 61.5543L337.578 65.4882L340.904 69.5318L344.105 73.6812L347.178 77.9323L350.122 82.2807L352.933 86.722L355.611 91.2514L358.153 95.8639L360.558 100.555L362.826 105.318L364.955 110.149L366.947 115.041L368.8 119.99L370.515 124.99L372.093 130.034L373.535 135.118L374.843 140.235L376.018 145.381L377.062 150.548L377.977 155.733L378.765 160.929L379.43 166.131L379.974 171.335L380.4 176.535L380.71 181.726L380.909 186.905L381 192.066L380.985 197.207L380.869 202.322L380.654 207.409L380.344 212.464L379.942 217.483L379.452 222.465L378.878 227.405L378.224 232.302L377.493 237.152L376.689 241.954L375.816 246.705L374.878 251.404L373.879 256.048L372.822 260.637L371.711 265.169L370.551 269.643L369.344 274.057L368.095 278.412L366.806 282.706L365.482 286.94L364.125 291.113L362.739 295.225L361.327 299.276L359.893 303.266L358.438 307.195L356.965 311.065L355.478 314.876L353.979 318.628L352.471 322.323L350.955 325.961L349.434 329.543L347.91 333.071L346.385 336.545L344.861 339.967L343.339 343.338L341.822 346.66L340.311 349.934L338.807 353.162L337.312 356.345L335.826 359.484L334.353 362.581Z" fill="#BC7B18"/>
</svg>
