<svg width="740" height="433" viewBox="0 0 740 433" fill="none" xmlns="http://www.w3.org/2000/svg">
<path opacity="0.05" fill-rule="evenodd" clip-rule="evenodd" d="M739.549 107.524L739.665 111.151L739.728 114.779L739.738 118.409L739.694 122.039L739.595 125.668L739.442 129.296L739.235 132.922L738.973 136.544L738.656 140.162L738.284 143.774L737.859 147.381L737.38 150.981L736.848 154.573L736.265 158.156L735.631 161.731L734.948 165.296L734.218 168.85L733.442 172.394L732.622 175.927L731.759 179.449L730.855 182.959L729.913 186.458L728.933 189.945L727.917 193.42L726.868 196.883L725.787 200.336L724.675 203.777L723.534 207.206L722.366 210.625L721.171 214.034L719.952 217.433L718.709 220.822L717.443 224.201L716.156 227.572L714.849 230.934L713.521 234.288L712.175 237.635L710.81 240.974L709.426 244.306L708.026 247.632L706.608 250.953L705.174 254.267L703.723 257.577L702.256 260.881L700.772 264.182L699.272 267.478L697.755 270.77L696.222 274.058L694.671 277.342L693.101 280.623L691.513 283.899L689.904 287.171L688.275 290.438L686.625 293.701L684.951 296.957L683.253 300.207L681.529 303.449L679.779 306.684L678.001 309.91L676.194 313.125L674.356 316.329L672.486 319.521L670.583 322.698L668.645 325.86L666.67 329.006L664.659 332.133L662.609 335.239L660.519 338.324L658.389 341.386L656.216 344.422L654.001 347.43L651.742 350.41L649.439 353.359L647.09 356.274L644.696 359.155L642.256 362L639.769 364.805L637.235 367.57L634.653 370.293L632.025 372.972L629.35 375.605L626.627 378.19L623.858 380.725L621.043 383.21L618.182 385.642L615.275 388.021L612.325 390.344L609.33 392.61L606.292 394.818L603.212 396.968L600.092 399.057L596.932 401.085L593.733 403.052L590.497 404.955L587.225 406.796L583.918 408.572L580.578 410.285L577.206 411.932L573.804 413.515L570.374 415.032L566.916 416.485L563.433 417.872L559.926 419.194L556.397 420.451L552.847 421.644L549.278 422.772L545.691 423.836L542.088 424.837L538.471 425.774L534.841 426.649L531.2 427.462L527.549 428.213L523.888 428.903L520.221 429.532L516.547 430.1L512.869 430.608L509.186 431.056L505.501 431.444L501.815 431.773L498.129 432.042L494.443 432.252L490.759 432.403L487.078 432.496L483.401 432.53L479.729 432.505L476.064 432.422L472.405 432.281L468.755 432.083L465.113 431.827L461.482 431.513L457.862 431.143L454.254 430.717L450.66 430.234L447.079 429.696L443.514 429.104L439.965 428.458L436.434 427.759L432.92 427.008L429.425 426.207L425.951 425.357L422.497 424.46L419.065 423.518L415.656 422.532L412.27 421.504L408.907 420.438L405.569 419.335L402.255 418.197L398.967 417.026L395.704 415.825L392.467 414.596L389.255 413.341L386.069 412.063L382.909 410.763L379.775 409.445L376.666 408.11L373.582 406.76L370.522 405.399L367.487 404.028L364.475 402.649L361.487 401.265L358.521 399.878L355.576 398.489L352.652 397.102L349.747 395.718L346.861 394.339L343.993 392.968L341.14 391.605L338.303 390.254L335.479 388.915L332.668 387.59L329.867 386.282L327.076 384.991L324.293 383.719L321.515 382.467L318.743 381.237L315.973 380.03L313.204 378.846L310.435 377.687L307.664 376.553L304.888 375.445L302.107 374.364L299.318 373.31L296.52 372.283L293.711 371.283L290.89 370.311L288.053 369.366L285.201 368.448L282.331 367.556L279.442 366.69L276.532 365.849L273.6 365.033L270.645 364.24L267.664 363.468L264.658 362.718L261.625 361.987L258.564 361.274L255.474 360.576L252.354 359.893L249.205 359.222L246.024 358.561L242.813 357.908L239.57 357.261L236.296 356.617L232.991 355.973L229.654 355.328L226.288 354.677L222.891 354.02L219.465 353.352L216.01 352.671L212.528 351.974L209.019 351.26L205.484 350.526L201.923 349.768L198.339 348.987L194.731 348.177L191.101 347.339L187.451 346.47L183.781 345.567L180.093 344.629L176.388 343.653L172.667 342.639L168.933 341.583L165.187 340.484L161.431 339.34L157.667 338.15L153.896 336.911L150.121 335.622L146.343 334.281L142.566 332.887L138.79 331.438L135.02 329.932L131.257 328.368L127.503 326.745L123.762 325.062L120.036 323.316L116.327 321.508L112.639 319.636L108.973 317.699L105.334 315.697L101.723 313.629L98.1428 311.494L94.5968 309.292L91.0873 307.023L87.617 304.686L84.1884 302.282L80.8043 299.811L77.4673 297.272L74.1798 294.666L70.9443 291.993L67.7635 289.255L64.6395 286.45L61.5748 283.581L58.5716 280.647L55.6321 277.65L52.7583 274.591L49.9522 271.471L47.2156 268.291L44.5504 265.052L41.958 261.756L39.4402 258.405L36.9981 254.999L34.6331 251.54L32.3462 248.031L30.1384 244.472L28.0105 240.866L25.9633 237.215L23.9972 233.52L22.1126 229.783L20.3097 226.007L18.5887 222.192L16.9496 218.342L15.392 214.459L13.9157 210.544L12.5202 206.598L11.205 202.626L9.96939 198.627L8.81249 194.605L7.7334 190.56L6.73109 186.496L5.80444 182.413L4.95224 178.314L4.1732 174.2L3.46598 170.073L2.82915 165.934L2.26127 161.786L1.76082 157.629L1.32627 153.464L0.956089 149.295L0.648707 145.12L0.402571 140.943L0.216138 136.763L0.0878849 132.582L0.016322 128.401L0 124.221L0.0375203 120.042L0.127544 115.866L0.268798 111.693L0.460089 107.524L0.700302 103.36L0.988416 99.2007L1.3235 95.0472L1.70474 90.8999L2.1314 86.7594L2.60288 82.6261L3.11869 78.5005L3.67843 74.383L4.2819 70.2742L4.92912 66.1745L5.62041 62.0845L6.35638 58.0046L7.13784 53.9357L7.96588 49.8782L8.84175 45.8332L9.76691 41.8015L10.743 37.784L11.7717 33.7818L12.8551 29.7962L13.9949 25.8286L15.1934 21.8802L16.4525 17.9528L17.7745 14.0479L19.1615 10.1673L20.6157 6.31299L22.139 2.48685L23.7335 -1.30898L25.4011 -5.07234L27.1438 -8.80095L28.9631 -12.4925L30.8607 -16.1446L32.8379 -19.7548L34.8958 -23.3207L37.0356 -26.8398L39.2579 -30.3095L41.5633 -33.7275L43.9519 -37.0912L46.4239 -40.3985L48.9788 -43.6468L51.6161 -46.834L54.3348 -49.9581L57.1338 -53.0172L60.0114 -56.0092L62.9659 -58.9328L65.9953 -61.7863L69.0975 -64.5682L72.2704 -67.2773L75.5118 -69.9121L78.8192 -72.4717L82.1902 -74.9549L85.6224 -77.3608L89.1131 -79.6886L92.6596 -81.9376L96.2591 -84.1072L99.9089 -86.197L103.606 -88.2066L107.348 -90.1358L111.131 -91.9845L114.952 -93.7528L118.81 -95.4408L122.699 -97.0489L126.618 -98.5775L130.563 -100.027L134.531 -101.398L138.52 -102.692L142.525 -103.909L146.544 -105.051L150.575 -106.119L154.613 -107.113L158.657 -108.035L162.702 -108.888L166.747 -109.671L170.788 -110.388L174.823 -111.04L178.85 -111.628L182.864 -112.156L186.865 -112.624L190.849 -113.035L194.814 -113.391L198.759 -113.694L202.68 -113.948L206.576 -114.153L210.445 -114.313L214.284 -114.43L218.093 -114.506L221.87 -114.544L225.612 -114.547L229.32 -114.517L232.99 -114.457L236.623 -114.369L240.218 -114.256L243.773 -114.121L247.287 -113.965L250.76 -113.792L254.192 -113.604L257.582 -113.403L260.929 -113.192L264.234 -112.972L267.496 -112.748L270.716 -112.519L273.893 -112.29L277.028 -112.061L280.121 -111.835L283.173 -111.614L286.185 -111.399L289.156 -111.192L292.088 -110.995L294.981 -110.809L297.837 -110.637L300.655 -110.479L303.438 -110.337L306.186 -110.214L308.899 -110.11L311.578 -110.03L314.225 -109.973L316.841 -109.943L319.426 -109.941L321.981 -109.97L324.508 -110.032L327.008 -110.129L329.483 -110.262L331.933 -110.434L334.36 -110.646L336.766 -110.901L339.152 -111.199L341.52 -111.544L343.872 -111.935L346.21 -112.375L348.535 -112.864L350.85 -113.405L353.156 -113.997L355.456 -114.642L357.751 -115.341L360.045 -116.093L362.338 -116.9L364.634 -117.762L366.934 -118.68L369.241 -119.652L371.557 -120.68L373.884 -121.764L376.224 -122.902L378.58 -124.096L380.955 -125.344L383.349 -126.647L385.766 -128.003L388.208 -129.412L390.677 -130.872L393.175 -132.382L395.704 -133.94L398.267 -135.544L400.865 -137.191L403.5 -138.881L406.174 -140.609L408.889 -142.373L411.646 -144.17L414.447 -145.996L417.293 -147.848L420.185 -149.723L423.125 -151.616L426.113 -153.523L429.15 -155.44L432.236 -157.364L435.372 -159.289L438.558 -161.211L441.794 -163.126L445.08 -165.028L448.416 -166.913L451.8 -168.776L455.232 -170.612L458.712 -172.416L462.238 -174.184L465.808 -175.911L469.422 -177.591L473.077 -179.22L476.772 -180.794L480.505 -182.307L484.272 -183.755L488.073 -185.133L491.904 -186.438L495.763 -187.664L499.646 -188.809L503.552 -189.868L507.476 -190.836L511.415 -191.712L515.367 -192.491L519.328 -193.17L523.294 -193.746L527.262 -194.217L531.229 -194.58L535.189 -194.833L539.141 -194.973L543.08 -195L547.002 -194.911L550.904 -194.706L554.782 -194.382L558.633 -193.941L562.452 -193.38L566.237 -192.701L569.984 -191.902L573.689 -190.985L577.35 -189.95L580.963 -188.797L584.525 -187.528L588.033 -186.144L591.484 -184.647L594.876 -183.038L598.207 -181.319L601.473 -179.493L604.674 -177.562L607.807 -175.53L610.872 -173.398L613.867 -171.172L616.791 -168.855L619.644 -166.45L622.427 -163.962L625.138 -161.396L627.78 -158.755L630.352 -156.044L632.856 -153.268L635.293 -150.431L637.665 -147.539L639.973 -144.595L642.22 -141.604L644.407 -138.57L646.537 -135.499L648.614 -132.393L650.638 -129.258L652.614 -126.097L654.543 -122.913L656.429 -119.711L658.276 -116.494L660.085 -113.264L661.86 -110.025L663.603 -106.779L665.318 -103.529L667.008 -100.276L668.674 -97.0223L670.319 -93.7698L671.946 -90.5194L673.556 -87.2721L675.151 -84.0286L676.733 -80.7894L678.303 -77.5546L679.862 -74.3244L681.412 -71.0988L682.953 -67.8775L684.485 -64.6605L686.011 -61.4473L687.53 -58.2375L689.042 -55.0307L690.549 -51.8261L692.049 -48.6232L693.544 -45.4213L695.033 -42.2195L696.516 -39.0172L697.993 -35.8134L699.462 -32.6073L700.925 -29.398L702.379 -26.1848L703.824 -22.9666L705.259 -19.7426L706.683 -16.5121L708.096 -13.2741L709.495 -10.0279L710.881 -6.77261L712.25 -3.50761L713.603 -0.232208L714.938 3.05426L716.253 6.35239L717.547 9.66267L718.819 12.9856L720.066 16.3216L721.288 19.671L722.483 23.0341L723.649 26.4111L724.785 29.8022L725.889 33.2074L726.96 36.6268L727.997 40.0604L728.998 43.508L729.962 46.9695L730.887 50.4447L731.772 53.9332L732.615 57.4348L733.417 60.949L734.175 64.4754L734.889 68.0136L735.557 71.5629L736.178 75.1227L736.752 78.6926L737.278 82.2718L737.755 85.8595L738.182 89.4551L738.558 93.0579L738.884 96.667L739.158 100.282L739.38 103.901L739.549 107.524Z" fill="#BC7B18"/>
</svg>
