<svg width="16" height="17" viewBox="0 0 16 17" fill="none" xmlns="http://www.w3.org/2000/svg">
<path d="M12.1673 6.36072C13.5391 6.40978 14.7039 7.43867 14.6664 8.81694C14.6577 9.1376 14.5335 9.53394 14.285 10.3266C13.6872 12.2343 12.6824 13.8903 10.4314 14.2877C10.0177 14.3607 9.55205 14.3607 8.62085 14.3607H7.38045C6.44925 14.3607 5.98365 14.3607 5.56988 14.2877C3.31891 13.8903 2.3141 12.2343 1.71622 10.3266C1.4678 9.53394 1.34358 9.1376 1.33486 8.81694C1.2974 7.43867 2.46218 6.40978 3.83399 6.36072" stroke="white" stroke-width="1.5" stroke-linecap="round"/>
<path d="M8.00065 9.69405V2.36072M8.00065 9.69405C7.53385 9.69405 6.66167 8.36452 6.33398 8.02738M8.00065 9.69405C8.46745 9.69405 9.33965 8.36452 9.66732 8.02738" stroke="white" stroke-width="1.5" stroke-linecap="round" stroke-linejoin="round"/>
</svg>
