<svg width="343" height="56" viewBox="0 0 343 56" fill="none" xmlns="http://www.w3.org/2000/svg">
<rect x="0.5" y="0.5" width="342" height="55" rx="5.5" stroke="#D4D6DD"/>
<path d="M124.076 34L119.66 22.304H121.836L124.396 29.04C124.652 29.744 124.876 30.432 125.132 31.376C125.42 30.352 125.66 29.632 125.884 29.04L128.412 22.304H130.54L126.188 34H124.076ZM132.687 24.512C132.015 24.512 131.487 23.984 131.487 23.328C131.487 22.672 132.015 22.16 132.687 22.16C133.327 22.16 133.855 22.672 133.855 23.328C133.855 23.984 133.327 24.512 132.687 24.512ZM131.711 34V26.096H133.663V34H131.711ZM139.216 34.208C136.864 34.208 135.216 32.496 135.216 30.048C135.216 27.568 136.832 25.856 139.152 25.856C141.52 25.856 143.024 27.44 143.024 29.904V30.496L137.072 30.512C137.216 31.904 137.952 32.608 139.248 32.608C140.32 32.608 141.024 32.192 141.248 31.44H143.056C142.72 33.168 141.28 34.208 139.216 34.208ZM139.168 27.456C138.016 27.456 137.312 28.08 137.12 29.264H141.088C141.088 28.176 140.336 27.456 139.168 27.456ZM145.986 34L143.426 26.096H145.458L146.498 29.488C146.674 30.112 146.834 30.8 146.978 31.536C147.122 30.768 147.266 30.272 147.522 29.488L148.61 26.096H150.594L151.65 29.488C151.746 29.808 152.066 30.992 152.162 31.52C152.29 30.928 152.546 29.984 152.69 29.488L153.746 26.096H155.81L153.074 34H151.25L150.162 30.576C149.842 29.536 149.666 28.784 149.602 28.384C149.522 28.752 149.378 29.312 148.978 30.608L147.89 34H145.986ZM163.577 34H161.593V22.304H163.577L167.353 31.616L171.129 22.304H173.145V34H171.161V30.4C171.161 28.048 171.161 27.36 171.273 26.528L168.297 34H166.409L163.449 26.544C163.561 27.248 163.577 28.352 163.577 29.808V34ZM174.982 30.032C174.982 27.568 176.758 25.872 179.206 25.872C181.654 25.872 183.43 27.568 183.43 30.032C183.43 32.496 181.654 34.192 179.206 34.192C176.758 34.192 174.982 32.496 174.982 30.032ZM176.934 30.032C176.934 31.472 177.862 32.448 179.206 32.448C180.55 32.448 181.478 31.472 181.478 30.032C181.478 28.592 180.55 27.616 179.206 27.616C177.862 27.616 176.934 28.592 176.934 30.032ZM189.937 26.064V27.872H189.217C187.809 27.872 186.929 28.624 186.929 30.16V34H184.977V26.112H186.817L186.929 27.264C187.265 26.48 188.017 25.952 189.073 25.952C189.345 25.952 189.617 25.984 189.937 26.064ZM194.528 34.208C192.176 34.208 190.528 32.496 190.528 30.048C190.528 27.568 192.144 25.856 194.464 25.856C196.832 25.856 198.336 27.44 198.336 29.904V30.496L192.384 30.512C192.528 31.904 193.264 32.608 194.56 32.608C195.632 32.608 196.336 32.192 196.56 31.44H198.368C198.032 33.168 196.592 34.208 194.528 34.208ZM194.48 27.456C193.328 27.456 192.624 28.08 192.432 29.264H196.4C196.4 28.176 195.648 27.456 194.48 27.456Z" fill="#008B8B"/>
<path d="M220.833 27.9998H210.166" stroke="#008B8B" stroke-width="1.5" stroke-linecap="round" stroke-linejoin="round"/>
<path d="M217.5 31.3334C217.5 31.3334 220.833 28.8785 220.833 28.0001C220.833 27.1217 217.5 24.6667 217.5 24.6667" stroke="#008B8B" stroke-width="1.5" stroke-linecap="round" stroke-linejoin="round"/>
</svg>
