<svg width="155" height="140" viewBox="0 0 155 140" fill="none" xmlns="http://www.w3.org/2000/svg">
<rect x="1.21484" y="0.5" width="153.286" height="139" rx="5.5" stroke="#D4D6DD"/>
<path d="M30.4334 76L26.0174 64.304H28.1934L30.7534 71.04C31.0094 71.744 31.2334 72.432 31.4894 73.376C31.7774 72.352 32.0174 71.632 32.2414 71.04L34.7694 64.304H36.8974L32.5454 76H30.4334ZM39.0445 66.512C38.3725 66.512 37.8445 65.984 37.8445 65.328C37.8445 64.672 38.3725 64.16 39.0445 64.16C39.6845 64.16 40.2125 64.672 40.2125 65.328C40.2125 65.984 39.6845 66.512 39.0445 66.512ZM38.0685 76V68.096H40.0205V76H38.0685ZM45.5733 76.208C43.2213 76.208 41.5733 74.496 41.5733 72.048C41.5733 69.568 43.1893 67.856 45.5093 67.856C47.8773 67.856 49.3813 69.44 49.3813 71.904V72.496L43.4293 72.512C43.5733 73.904 44.3093 74.608 45.6053 74.608C46.6773 74.608 47.3813 74.192 47.6053 73.44H49.4133C49.0773 75.168 47.6373 76.208 45.5733 76.208ZM45.5253 69.456C44.3733 69.456 43.6693 70.08 43.4773 71.264H47.4453C47.4453 70.176 46.6933 69.456 45.5253 69.456ZM52.3438 76L49.7838 68.096H51.8158L52.8558 71.488C53.0318 72.112 53.1918 72.8 53.3358 73.536C53.4798 72.768 53.6238 72.272 53.8798 71.488L54.9678 68.096H56.9518L58.0078 71.488C58.1038 71.808 58.4238 72.992 58.5198 73.52C58.6478 72.928 58.9038 71.984 59.0478 71.488L60.1038 68.096H62.1678L59.4318 76H57.6078L56.5198 72.576C56.1998 71.536 56.0238 70.784 55.9598 70.384C55.8798 70.752 55.7358 71.312 55.3358 72.608L54.2478 76H52.3438ZM69.9343 76H67.9503V64.304H69.9343L73.7103 73.616L77.4863 64.304H79.5023V76H77.5183V72.4C77.5183 70.048 77.5183 69.36 77.6303 68.528L74.6543 76H72.7663L69.8063 68.544C69.9183 69.248 69.9343 70.352 69.9343 71.808V76ZM81.3389 72.032C81.3389 69.568 83.1149 67.872 85.5629 67.872C88.0109 67.872 89.7869 69.568 89.7869 72.032C89.7869 74.496 88.0109 76.192 85.5629 76.192C83.1149 76.192 81.3389 74.496 81.3389 72.032ZM83.2909 72.032C83.2909 73.472 84.2189 74.448 85.5629 74.448C86.9069 74.448 87.8349 73.472 87.8349 72.032C87.8349 70.592 86.9069 69.616 85.5629 69.616C84.2189 69.616 83.2909 70.592 83.2909 72.032ZM96.2942 68.064V69.872H95.5742C94.1662 69.872 93.2862 70.624 93.2862 72.16V76H91.3342V68.112H93.1742L93.2862 69.264C93.6222 68.48 94.3742 67.952 95.4302 67.952C95.7022 67.952 95.9742 67.984 96.2942 68.064ZM100.886 76.208C98.5338 76.208 96.8858 74.496 96.8858 72.048C96.8858 69.568 98.5018 67.856 100.822 67.856C103.19 67.856 104.694 69.44 104.694 71.904V72.496L98.7418 72.512C98.8858 73.904 99.6218 74.608 100.918 74.608C101.99 74.608 102.694 74.192 102.918 73.44H104.726C104.39 75.168 102.95 76.208 100.886 76.208ZM100.838 69.456C99.6858 69.456 98.9818 70.08 98.7898 71.264H102.758C102.758 70.176 102.006 69.456 100.838 69.456Z" fill="#008B8B"/>
<path d="M127.191 69.9999H116.524" stroke="#008B8B" stroke-width="1.5" stroke-linecap="round" stroke-linejoin="round"/>
<path d="M123.857 73.3333C123.857 73.3333 127.191 70.8784 127.191 70C127.191 69.1216 123.857 66.6666 123.857 66.6666" stroke="#008B8B" stroke-width="1.5" stroke-linecap="round" stroke-linejoin="round"/>
</svg>
